<mxfile host="app.diagrams.net" agent="Mozilla/5.0 (X11; Linux x86_64; rv:142.0) Gecko/20100101 Firefox/142.0" version="28.2.5">
  <diagram name="Page-1" id="laezRSQRt0W4opc4MTFI">
    <mxGraphModel dx="429" dy="834" grid="1" gridSize="10" guides="1" tooltips="1" connect="1" arrows="1" fold="1" page="1" pageScale="1" pageWidth="850" pageHeight="1100" math="0" shadow="0">
      <root>
        <mxCell id="0" />
        <mxCell id="1" parent="0" />
        <mxCell id="XYjsLZtg80Rdv_ggx3eZ-6" value="" style="edgeStyle=orthogonalEdgeStyle;rounded=0;orthogonalLoop=1;jettySize=auto;html=1;" edge="1" parent="1" source="mTxorUDAwDrdlYYTZT9Y-1" target="XYjsLZtg80Rdv_ggx3eZ-1">
          <mxGeometry relative="1" as="geometry" />
        </mxCell>
        <mxCell id="mTxorUDAwDrdlYYTZT9Y-1" value="Student UI" style="rounded=0;whiteSpace=wrap;html=1;" parent="1" vertex="1">
          <mxGeometry x="370" y="400" width="120" height="60" as="geometry" />
        </mxCell>
        <mxCell id="XYjsLZtg80Rdv_ggx3eZ-7" value="" style="edgeStyle=orthogonalEdgeStyle;rounded=0;orthogonalLoop=1;jettySize=auto;html=1;" edge="1" parent="1" source="XYjsLZtg80Rdv_ggx3eZ-1" target="XYjsLZtg80Rdv_ggx3eZ-4">
          <mxGeometry relative="1" as="geometry" />
        </mxCell>
        <mxCell id="XYjsLZtg80Rdv_ggx3eZ-8" value="" style="edgeStyle=orthogonalEdgeStyle;rounded=0;orthogonalLoop=1;jettySize=auto;html=1;" edge="1" parent="1" source="XYjsLZtg80Rdv_ggx3eZ-1" target="XYjsLZtg80Rdv_ggx3eZ-2">
          <mxGeometry relative="1" as="geometry" />
        </mxCell>
        <mxCell id="XYjsLZtg80Rdv_ggx3eZ-1" value="&lt;div&gt;API Layer&lt;/div&gt;" style="rounded=0;whiteSpace=wrap;html=1;" vertex="1" parent="1">
          <mxGeometry x="370" y="530" width="120" height="60" as="geometry" />
        </mxCell>
        <mxCell id="XYjsLZtg80Rdv_ggx3eZ-9" value="" style="edgeStyle=orthogonalEdgeStyle;rounded=0;orthogonalLoop=1;jettySize=auto;html=1;" edge="1" parent="1" source="XYjsLZtg80Rdv_ggx3eZ-2" target="XYjsLZtg80Rdv_ggx3eZ-5">
          <mxGeometry relative="1" as="geometry" />
        </mxCell>
        <mxCell id="XYjsLZtg80Rdv_ggx3eZ-10" value="" style="edgeStyle=orthogonalEdgeStyle;rounded=0;orthogonalLoop=1;jettySize=auto;html=1;" edge="1" parent="1" source="XYjsLZtg80Rdv_ggx3eZ-2" target="XYjsLZtg80Rdv_ggx3eZ-3">
          <mxGeometry relative="1" as="geometry" />
        </mxCell>
        <mxCell id="XYjsLZtg80Rdv_ggx3eZ-2" value="Auth Service" style="rounded=0;whiteSpace=wrap;html=1;" vertex="1" parent="1">
          <mxGeometry x="540" y="530" width="120" height="60" as="geometry" />
        </mxCell>
        <mxCell id="XYjsLZtg80Rdv_ggx3eZ-3" value="Session Manager" style="rounded=0;whiteSpace=wrap;html=1;" vertex="1" parent="1">
          <mxGeometry x="710" y="530" width="120" height="60" as="geometry" />
        </mxCell>
        <mxCell id="XYjsLZtg80Rdv_ggx3eZ-4" value="Database" style="rounded=0;whiteSpace=wrap;html=1;" vertex="1" parent="1">
          <mxGeometry x="370" y="650" width="120" height="60" as="geometry" />
        </mxCell>
        <mxCell id="XYjsLZtg80Rdv_ggx3eZ-5" value="Email Service" style="rounded=0;whiteSpace=wrap;html=1;" vertex="1" parent="1">
          <mxGeometry x="540" y="650" width="120" height="60" as="geometry" />
        </mxCell>
      </root>
    </mxGraphModel>
  </diagram>
</mxfile>
